<?xml version="1.0" standalone="no"?>
<!DOCTYPE svg PUBLIC "-//W3C//DTD SVG 20010904//EN"
 "http://www.w3.org/TR/2001/REC-SVG-20010904/DTD/svg10.dtd">
<svg version="1.0" xmlns="http://www.w3.org/2000/svg"
 width="150" height="150" viewBox="0 0 519.000000 393.000000"
 preserveAspectRatio="xMidYMid meet">

<g transform="translate(0.000000,393.000000) scale(0.100000,-0.100000)"
fill="#B533FF" stroke="none">
<path d="M2514 3829 c-51 -15 -125 -72 -161 -123 -56 -82 -63 -122 -63 -381
l0 -232 158 -6 c125 -4 169 -9 216 -26 116 -41 208 -135 258 -262 17 -44 22
-83 26 -217 l5 -163 251 3 c210 4 259 7 298 22 66 25 141 95 175 164 24 49 28
69 28 142 -1 65 -6 96 -22 132 -30 66 -95 133 -162 165 l-56 28 -257 3 -256 4
-4 251 c-6 303 -10 321 -102 413 -43 42 -76 66 -110 77 -54 18 -170 21 -222 6z"/>
<path d="M1230 1351 c-82 -26 -151 -90 -188 -170 -20 -44 -26 -72 -26 -132 0
-67 5 -86 33 -143 71 -145 242 -205 393 -138 146 64 217 262 147 412 -55 117
-134 172 -259 177 -41 1 -86 -1 -100 -6z m168 -141 c43 -26 71 -90 72 -158 0
-64 -17 -107 -59 -147 -28 -26 -40 -30 -91 -30 -97 0 -151 55 -158 160 -5 77
21 142 71 174 43 28 121 28 165 1z"/>
<path d="M410 1050 l0 -300 65 0 65 0 1 178 c1 97 1 180 0 185 -4 28 28 -17
129 -176 l116 -182 67 -3 67 -3 0 301 0 300 -65 0 -65 0 -2 -187 -3 -186 -79
124 c-44 68 -97 152 -119 187 l-40 62 -69 0 -68 0 0 -300z"/>
<path d="M1650 1347 c0 -2 55 -136 123 -298 l124 -294 54 -3 54 -2 117 282
c65 156 120 291 124 301 5 15 -2 17 -69 17 l-74 0 -74 -195 c-40 -107 -77
-191 -80 -187 -4 4 -21 45 -39 92 -17 47 -50 131 -72 188 l-40 102 -74 0 c-41
0 -74 -2 -74 -3z"/>
<path d="M2487 1343 c-8 -13 -237 -581 -237 -588 0 -3 32 -5 72 -3 l72 3 20
58 21 57 116 0 117 0 22 -60 22 -60 69 0 c38 0 69 3 69 8 0 4 -53 139 -117
299 l-118 293 -62 0 c-34 0 -64 -3 -66 -7z m99 -260 c16 -43 31 -81 32 -85 2
-4 -28 -8 -66 -8 l-70 0 32 85 c17 47 34 85 37 85 4 0 19 -35 35 -77z"/>
<path d="M2910 1050 l0 -300 170 0 170 0 0 60 0 60 -105 0 -106 0 2 238 1 237
-66 3 -66 3 0 -301z"/>
<path d="M3560 343 l0 -86 -20 18 c-48 44 -133 8 -146 -60 -7 -37 16 -89 45
-105 28 -15 73 -12 99 6 20 14 22 14 22 0 0 -9 7 -16 15 -16 13 0 15 25 15
165 0 140 -2 165 -15 165 -12 0 -15 -16 -15 -87z m-25 -98 c28 -27 31 -45 14
-78 -16 -30 -28 -37 -66 -37 -36 0 -63 29 -63 68 0 29 42 72 70 72 12 0 32
-11 45 -25z"/>
<path d="M2867 344 c-39 -175 -50 -234 -44 -241 14 -13 24 13 43 105 10 50 21
92 25 92 4 0 24 -45 44 -100 21 -55 42 -100 45 -100 4 0 24 45 45 100 21 55
40 100 44 100 4 0 16 -44 26 -97 15 -71 25 -99 36 -101 14 -2 11 20 -18 150
-19 84 -35 153 -36 154 -1 2 -22 -51 -47 -117 -25 -65 -47 -119 -50 -119 -3 0
-26 55 -51 122 l-46 122 -16 -70z"/>
<path d="M1562 380 c-45 -28 -72 -76 -72 -130 0 -142 173 -203 260 -93 30 39
7 41 -36 4 -91 -80 -232 9 -194 124 30 92 130 112 207 43 32 -30 49 -18 23 15
-46 58 -127 74 -188 37z"/>
<path d="M3265 370 c-19 -36 -2 -41 26 -7 22 27 24 37 4 37 -8 0 -21 -13 -30
-30z"/>
<path d="M2270 330 c0 -33 -3 -40 -19 -40 -11 0 -23 -4 -26 -10 -4 -6 5 -10
19 -10 26 0 26 0 26 -85 0 -69 3 -85 15 -85 12 0 15 16 15 85 0 84 0 85 25 85
14 0 25 5 25 10 0 6 -11 10 -25 10 -22 0 -25 4 -25 40 0 29 -4 40 -15 40 -11
0 -15 -11 -15 -40z"/>
<path d="M3640 345 c0 -10 7 -15 18 -13 21 4 19 22 -2 26 -10 2 -16 -3 -16
-13z"/>
<path d="M1853 285 c-38 -16 -53 -42 -53 -90 0 -78 92 -122 154 -74 32 25 24
47 -10 25 -31 -21 -77 -20 -97 2 -32 35 -21 42 68 42 47 0 85 2 85 5 0 25 -34
77 -59 89 -36 19 -47 19 -88 1z m85 -31 c42 -29 28 -44 -43 -44 -69 0 -78 7
-45 40 24 24 57 26 88 4z"/>
<path d="M2096 285 c-33 -18 -39 -19 -31 -5 3 6 -1 10 -9 10 -13 0 -16 -16
-16 -95 0 -57 4 -95 10 -95 6 0 10 19 11 43 0 64 20 110 51 121 45 16 58 -5
58 -90 0 -61 3 -74 16 -74 14 0 16 12 12 80 -3 82 -12 102 -53 114 -11 3 -33
-1 -49 -9z"/>
<path d="M2431 284 c-12 -9 -21 -11 -21 -5 0 6 -7 11 -15 11 -12 0 -15 -17
-15 -95 0 -78 3 -95 15 -95 12 0 15 13 15 61 0 73 12 99 45 99 15 0 25 6 25
14 0 21 -25 26 -49 10z"/>
<path d="M2560 293 c-78 -30 -90 -142 -19 -178 70 -37 149 6 149 79 0 62 -76
120 -130 99z m74 -44 c50 -40 24 -119 -40 -119 -69 0 -101 78 -48 119 15 12
34 21 44 21 10 0 29 -9 44 -21z"/>
<path d="M3230 293 c-29 -11 -59 -46 -65 -75 -20 -88 88 -153 159 -97 34 27
20 50 -15 25 -32 -22 -75 -20 -99 4 -34 34 -24 40 65 40 78 0 85 2 85 20 0 47
-84 101 -130 83z m77 -47 c15 -13 25 -27 22 -31 -4 -3 -38 -5 -75 -3 l-69 3
27 28 c33 33 58 34 95 3z"/>
<path d="M3773 286 c-38 -17 -53 -43 -53 -91 0 -50 44 -95 93 -95 33 0 87 31
87 51 0 14 -26 11 -40 -6 -17 -21 -73 -19 -93 3 -21 23 -22 76 -2 96 27 27 55
29 86 7 48 -35 69 -23 27 17 -31 28 -67 34 -105 18z"/>
<path d="M3984 281 c-59 -36 -65 -112 -12 -156 42 -35 91 -34 129 4 51 51 33
137 -33 160 -41 15 -48 14 -84 -8z m81 -17 c8 -4 22 -19 30 -35 39 -74 -63
-138 -114 -73 -27 35 -26 59 4 89 24 25 49 31 80 19z"/>
<path d="M3640 195 c0 -78 3 -95 15 -95 12 0 15 17 15 95 0 78 -3 95 -15 95
-12 0 -15 -17 -15 -95z"/>
</g>
</svg>
