<?xml version="1.0" standalone="no"?>
<!DOCTYPE svg PUBLIC "-//W3C//DTD SVG 20010904//EN"
 "http://www.w3.org/TR/2001/REC-SVG-20010904/DTD/svg10.dtd">
<svg version="1.0" xmlns="http://www.w3.org/2000/svg"
 width="150" height="150" viewBox="0 0 300.000000 227.000000"
 preserveAspectRatio="xMidYMid meet">
<metadata>
Created by potrace 1.10, written by Peter Selinger 2001-2011
</metadata>
<g transform="translate(0.000000,227.000000) scale(0.100000,-0.100000)"
fill="#B533FF" stroke="none">
<path d="M1435 2203 c-41 -21 -74 -52 -93 -88 -13 -24 -17 -61 -17 -179 l0
-149 95 -1 c110 -2 168 -23 221 -83 51 -59 63 -97 63 -205 l1 -98 148 0 c128
0 153 3 187 20 62 32 93 81 98 155 5 78 -20 133 -80 172 -40 27 -46 28 -200
31 l-158 4 0 149 c0 158 -9 198 -57 241 -51 46 -151 61 -208 31z m153 -37 c32
-17 70 -66 76 -98 3 -13 5 -81 5 -151 1 -170 -1 -169 171 -172 182 -3 210 -13
251 -89 21 -40 22 -48 11 -95 -23 -102 -78 -130 -247 -129 -132 0 -120 -10
-129 111 -5 70 -30 137 -62 172 -11 12 -41 35 -67 52 -47 31 -81 39 -192 46
l-40 2 -3 120 c-1 66 0 130 3 142 3 12 23 41 45 63 37 37 43 40 95 40 31 0 68
-6 83 -14z"/>
<path d="M995 1761 c-139 -63 -152 -243 -24 -328 41 -27 49 -28 182 -31 92 -3
143 0 150 7 8 8 -26 11 -125 11 -150 0 -178 6 -225 52 -41 39 -56 84 -48 140
9 61 32 93 86 122 43 24 57 26 165 26 66 0 126 5 134 10 10 7 -29 10 -120 10
-110 0 -143 -4 -175 -19z"/>
<path d="M1332 1675 c-1 -68 3 -100 17 -130 25 -55 100 -120 156 -134 52 -13
191 -14 160 -1 -11 4 -29 6 -41 3 -35 -8 -145 17 -180 41 -72 49 -95 97 -104
221 l-7 90 -1 -90z"/>
<path d="M1326 1257 c2 -195 16 -232 108 -279 84 -43 203 -2 245 84 18 39 21
62 21 183 0 76 -3 135 -7 132 -3 -4 -7 -65 -8 -135 -3 -164 -24 -212 -110
-248 -56 -23 -106 -18 -153 16 -72 52 -77 65 -80 234 -1 83 -6 154 -10 158 -4
4 -7 -61 -6 -145z"/>
<path d="M706 780 c-34 -11 -82 -54 -102 -92 -8 -15 -14 -54 -14 -86 0 -96 57
-161 149 -170 64 -6 92 2 131 34 43 37 63 80 63 140 0 61 -29 119 -77 152 -37
25 -107 36 -150 22z m118 -101 c69 -81 -9 -211 -101 -167 -38 18 -55 54 -50
106 6 58 38 92 88 92 29 0 43 -7 63 -31z"/>
<path d="M238 605 l3 -175 41 0 41 0 -7 110 c-4 72 -3 110 4 110 5 0 10 -5 10
-10 0 -6 28 -55 63 -110 61 -98 62 -99 102 -100 l40 0 0 175 0 175 -40 0 -40
0 3 -82 c7 -156 6 -156 -71 -30 l-68 112 -42 0 -42 0 3 -175z m86 95 c3 -8 9
-21 12 -27 3 -7 -1 -13 -9 -13 -14 0 -49 -33 -45 -41 2 -2 -1 -1 -7 4 -6 5 -4
11 5 17 10 6 11 10 3 10 -9 0 -11 13 -9 43 2 23 4 43 5 45 3 7 40 -24 45 -38z
m175 -170 c2 -44 -1 -50 -17 -50 -12 0 -24 11 -32 30 -11 27 -10 32 11 50 13
10 27 19 30 20 3 0 6 -22 8 -50z"/>
<path d="M994 678 c109 -260 100 -243 133 -246 30 -3 30 -3 101 167 40 94 72
173 72 176 0 3 -19 5 -43 5 l-43 0 -33 -92 c-19 -51 -38 -104 -43 -118 -9 -22
-14 -12 -52 90 l-42 115 -47 3 -46 3 43 -103z m168 -140 c-9 -36 -34 -59 -49
-46 -20 16 -16 48 6 48 11 0 23 5 26 10 11 18 23 10 17 -12z"/>
<path d="M1370 614 c-36 -91 -67 -169 -69 -175 -2 -6 14 -9 40 -7 39 3 44 6
53 36 l9 32 72 0 72 0 9 -32 c9 -30 14 -33 53 -36 24 -2 41 1 40 6 -2 5 -33
84 -69 175 l-65 166 -40 0 -40 0 -65 -165z m129 100 c6 -15 10 -28 8 -31 -9
-8 -57 17 -57 30 0 35 33 36 49 1z m-1 -91 l20 -53 -43 0 -43 0 21 55 c11 31
21 54 23 53 1 -2 11 -27 22 -55z m-78 -72 c0 -11 -9 -23 -21 -26 -26 -9 -29
-5 -18 23 10 27 39 29 39 3z m143 12 c2 -5 7 -21 11 -38 5 -22 4 -26 -4 -14
-5 9 -21 20 -36 23 -21 6 -24 9 -14 21 13 16 36 20 43 8z"/>
<path d="M1680 605 l0 -175 100 0 100 0 0 35 0 35 -60 0 -60 0 0 140 0 140
-40 0 -40 0 0 -175z"/>
<path d="M1981 628 c-7 -84 -15 -163 -18 -175 -5 -21 -2 -23 35 -23 39 0 39 0
46 46 3 26 6 72 5 103 0 49 -2 53 -11 31 -6 -14 -13 -50 -17 -80 -3 -32 -10
-53 -16 -50 -5 3 -9 12 -8 20 1 8 5 57 8 109 4 52 9 101 10 110 2 9 4 20 4 24
1 5 11 7 23 5 16 -2 28 -20 49 -72 29 -71 69 -128 54 -76 -4 14 -21 60 -37
103 l-30 77 -42 0 -43 0 -12 -152z"/>
<path d="M2196 685 c-40 -104 -40 -105 -27 -105 4 0 23 35 41 78 36 82 57 109
74 92 13 -13 33 -229 25 -261 -5 -23 -6 -23 -12 -4 -3 11 -11 47 -16 79 -6 33
-13 62 -16 64 -7 7 -6 -96 1 -152 7 -46 7 -46 46 -46 37 0 40 2 35 23 -3 12
-11 91 -18 175 l-12 152 -42 0 -42 0 -37 -95z"/>
<path d="M2397 608 l2 -173 100 -3 99 -3 -1 36 -1 35 -63 0 -63 0 0 38 0 38
60 -4 60 -4 0 36 0 36 -60 0 -60 0 0 35 0 35 64 0 64 0 -1 35 -1 35 -100 0
-101 0 2 -172z m108 143 l30 -7 -33 -7 c-37 -8 -58 -42 -48 -80 4 -18 18 -30
48 -40 35 -12 38 -16 18 -16 -34 -1 -70 -28 -70 -51 0 -35 23 -70 49 -76 48
-11 46 -12 -11 -13 -54 -1 -57 0 -62 27 -9 42 -4 235 6 255 9 18 22 19 73 8z"/>
<path d="M2660 605 l0 -175 53 0 c143 0 224 71 215 190 -8 106 -74 159 -200
160 l-68 0 0 -175z m127 143 c7 -1 10 -5 8 -9 -3 -4 -19 -5 -36 -2 -19 3 -29
1 -25 -5 3 -5 -1 -15 -9 -22 -22 -18 -21 -177 1 -208 41 -59 146 16 146 104 0
38 -24 88 -53 107 -30 21 -5 32 26 11 68 -44 76 -154 17 -221 -10 -13 -26 -23
-35 -23 -9 0 -18 -4 -21 -8 -2 -4 -31 -8 -63 -7 l-58 0 -1 130 c-1 72 2 138 7
147 7 12 18 15 46 12 21 -3 43 -5 50 -6z m19 -53 c72 -50 45 -173 -42 -191
l-29 -6 0 106 0 106 25 0 c14 0 35 -7 46 -15z"/>
<path d="M2075 610 c11 -52 56 -170 65 -170 5 0 15 -3 23 -6 11 -4 22 18 46
90 17 53 31 102 31 108 -1 26 -37 -36 -50 -84 -25 -89 -43 -83 -82 26 -23 63
-43 86 -33 36z"/>
<path d="M2055 205 l7 -44 -34 5 c-41 7 -68 -14 -68 -52 0 -32 36 -68 58 -58
9 4 26 7 37 7 19 0 20 6 21 93 1 75 -2 94 -13 94 -11 0 -13 -10 -8 -45z m-5
-75 c15 -28 -22 -65 -50 -50 -19 10 -27 49 -13 63 14 14 53 6 63 -13z"/>
<path d="M1645 155 c-19 -90 -19 -94 -8 -97 4 -2 11 17 16 42 16 87 14 88 61
-35 7 -17 12 -10 30 37 28 75 33 78 41 26 7 -45 20 -76 29 -68 5 6 -27 166
-35 174 -2 3 -15 -26 -29 -65 -13 -38 -26 -66 -30 -62 -4 4 -17 36 -30 71 -12
34 -23 62 -25 62 -1 0 -10 -38 -20 -85z"/>
<path d="M885 205 c-54 -53 -15 -149 59 -149 24 0 44 7 58 22 26 25 16 43 -10
19 -25 -22 -75 -22 -95 1 -22 25 -21 75 1 95 24 22 70 22 94 0 10 -9 21 -13
26 -9 13 14 -39 46 -75 46 -23 0 -42 -8 -58 -25z"/>
<path d="M1310 195 c0 -17 -6 -25 -17 -25 -17 -1 -17 -1 0 -14 11 -9 17 -27
17 -54 0 -22 5 -44 10 -47 6 -4 10 13 10 44 0 39 4 51 15 51 8 0 15 5 15 10 0
6 -7 10 -15 10 -9 0 -15 9 -15 25 0 14 -4 25 -10 25 -5 0 -10 -11 -10 -25z"/>
<path d="M1058 159 c-22 -13 -24 -72 -3 -89 21 -17 64 -16 83 3 14 15 12 16
-28 14 -26 -1 -45 3 -47 10 -3 8 12 13 46 15 50 3 50 3 38 28 -14 28 -59 38
-89 19z m70 -26 c2 -9 -8 -13 -32 -13 -34 0 -44 8 -29 24 11 11 56 2 61 -11z"/>
<path d="M1179 123 c-1 -24 -2 -47 -3 -53 -1 -5 4 -11 9 -12 6 -2 12 17 15 42
4 37 9 46 28 48 20 3 22 -1 22 -42 0 -25 5 -48 10 -51 12 -7 14 84 2 103 -5 7
-24 11 -45 10 -36 -3 -37 -4 -38 -45z"/>
<path d="M1372 113 c2 -29 7 -52 13 -51 5 2 8 11 7 22 -6 30 7 66 23 66 8 0
15 4 15 9 0 5 -14 9 -30 9 -31 -1 -31 -1 -28 -55z"/>
<path d="M1457 152 c-34 -38 -11 -95 38 -94 28 0 65 31 65 56 0 48 -71 74
-103 38z m74 -18 c19 -23 -1 -49 -37 -49 -30 0 -42 20 -30 51 7 19 50 18 67
-2z"/>
<path d="M1842 158 c-7 -7 -12 -26 -12 -43 0 -17 5 -36 12 -43 17 -17 73 -15
88 3 10 12 10 15 -1 15 -8 0 -21 -4 -28 -9 -9 -6 -22 -6 -33 0 -31 17 -20 29
27 29 37 0 45 3 45 18 0 27 -20 42 -55 42 -17 0 -36 -5 -43 -12z m76 -25 c2
-9 -8 -13 -32 -13 -34 0 -44 8 -29 24 11 11 56 2 61 -11z"/>
<path d="M2104 113 c1 -32 4 -57 9 -55 4 1 7 4 7 7 0 3 0 28 0 55 0 28 -4 50
-8 50 -5 0 -8 -26 -8 -57z"/>
<path d="M2166 154 c-34 -33 -6 -104 40 -104 18 0 60 37 52 46 -4 4 -14 1 -22
-5 -8 -7 -25 -11 -38 -9 -18 2 -23 9 -23 33 0 24 5 31 24 33 13 2 27 -2 31 -8
4 -7 13 -11 20 -8 20 6 -17 38 -45 38 -13 0 -31 -7 -39 -16z"/>
<path d="M2284 145 c-14 -21 -15 -31 -5 -51 26 -59 110 -42 111 22 0 52 -77
73 -106 29z m81 -30 c0 -26 -4 -30 -32 -33 -25 -2 -33 1 -38 18 -9 28 12 52
44 48 22 -2 26 -8 26 -33z"/>
</g>
</svg>
